# xmcd
#
# Track frame offsets: 
#        150
#        13945
#        27611
#        40017
#        53883
#        63975
#        77153
#        88027
#        101168
#        113284
#        126211
#        138102
#        151341
#        165747
#
# Disc length: 2376 seconds
#
# Revision: 4
# Processed by: cddbd v1.5.2PL0 Copyright (c) Steve Scherf et al.
# Submitted via: ExactAudioCopy v0.95b4
#
DISCID=b009460e
DTITLE=Albert King and Otis Rush - Door To Door
DYEAR=1990
DGENRE=Blues
TTITLE0=Searchin' For A Woman
TTITLE1=Bad Luck
TTITLE2=So Close
TTITLE3=Howlin' For My Darling
TTITLE4=I Can't Stop
TTITLE5=Won't Be Hangin' Around
TTITLE6=I'm Satisfied
TTITLE7=All Your Love
TTITLE8=You Know My Love
TTITLE9=Merry Way
TTITLE10=Wild Women
TTITLE11=Murder
TTITLE12=So Many Roads
TTITLE13=California
EXTD=
EXTT0=
EXTT1=
EXTT2=
EXTT3=
EXTT4=
EXTT5=
EXTT6=
EXTT7=
EXTT8=
EXTT9=
EXTT10=
EXTT11=
EXTT12=
EXTT13=
PLAYORDER=
